<?xml version="1.0" encoding="UTF-8"?>
<svg id="Capa_1" data-name="Capa 1" xmlns="http://www.w3.org/2000/svg" viewBox="0 0 511.98 512">
    <path
        d="m417.65,454.62c-45.35,36.84-100.02,56.63-158.31,57.36-1.12.01-2.23.02-3.35.02s-2.23,0-3.35-.02c-58.28-.73-112.96-20.52-158.33-57.36-2.62-2.13-4.04-5.42-3.77-8.78.27-3.36,2.17-6.37,5.1-8.07,12.45-7.19,26.07-11.98,39.26-16.65,31.64-11.18,57.03-20.13,59.8-56.18-50.44-5.89-83.83-16.83-85.3-17.32-3.11-1.05-5.55-3.52-6.53-6.64-.99-3.13-.41-6.55,1.53-9.19.29-.39,28.69-39.53,28.69-106.51,0-102.58,45.94-163.84,122.88-163.84s122.87,61.26,122.87,163.84c0,66.98,28.41,106.14,28.7,106.51,1.94,2.64,2.51,6.06,1.53,9.19-1,3.12-3.42,5.59-6.53,6.64-1.48.47-34.86,11.43-85.3,17.32,2.79,36.05,28.16,45,59.8,56.18,13.21,4.67,26.83,9.46,39.28,16.65,2.93,1.7,4.81,4.69,5.08,8.07.29,3.35-1.13,6.63-3.75,8.78Z" />
</svg>