<svg width="74" height="74" viewBox="0 0 74 74" fill="none" xmlns="http://www.w3.org/2000/svg">
<path d="M23.9313 18.8H49.9934C52.168 18.8 53.9349 20.567 53.9349 22.7416V27.091C53.9349 28.688 52.9495 30.6587 51.9641 31.6441L43.4694 39.1535C42.2801 40.1389 41.4986 42.1097 41.4986 43.7067V52.2015C41.4986 53.3908 40.717 54.9538 39.7316 55.5654L36.9793 57.2984C34.3969 58.8954 30.8631 57.0945 30.8631 53.9344V43.4689C30.8631 42.0757 30.0816 40.3088 29.2661 39.3234L21.7567 31.4063C20.7713 30.4548 19.9897 28.654 19.9897 27.4647V22.9455C19.9897 20.567 21.7567 18.8 23.9313 18.8Z" stroke="#C7C7C7" stroke-width="5" stroke-miterlimit="10" stroke-linecap="round" stroke-linejoin="round"/>
<path d="M26.7854 70.9583H47.1729C64.1625 70.9583 70.9583 64.1625 70.9583 47.1729V26.7854C70.9583 9.79583 64.1625 3 47.1729 3H26.7854C9.79583 3 3 9.79583 3 26.7854V47.1729C3 64.1625 9.79583 70.9583 26.7854 70.9583Z" stroke="#C7C7C7" stroke-width="5" stroke-linecap="round" stroke-linejoin="round"/>
</svg>
