<svg width="329" height="321" viewBox="0 0 329 321" fill="none" xmlns="http://www.w3.org/2000/svg">
<path d="M253.959 175.706C247.946 181.576 244.51 190.023 245.369 199.042C246.657 214.504 260.831 225.815 276.293 225.815H303.495V242.852C303.495 272.488 279.3 296.683 249.664 296.683H104.921C109.359 292.961 113.224 288.379 116.231 283.225C121.528 274.635 124.535 264.47 124.535 253.733C124.535 222.092 98.9075 196.465 67.2673 196.465C53.8094 196.465 41.3538 201.19 31.4752 209.064V146.499C31.4752 116.864 55.6706 92.6682 85.3065 92.6682H249.664C279.3 92.6682 303.495 116.864 303.495 146.499V167.116H274.575C266.558 167.116 259.256 170.265 253.959 175.706Z" stroke="#9B9B9B" stroke-width="20" stroke-linecap="round" stroke-linejoin="round"/>
<path d="M31.4752 159.386V93.9582C31.4752 76.9211 41.9265 61.7447 57.8181 55.7316L171.494 12.7811C189.247 6.05218 208.288 19.2241 208.288 38.2655V92.6694" stroke="#9B9B9B" stroke-width="20" stroke-linecap="round" stroke-linejoin="round"/>
<path d="M318.654 181.722V211.214C318.654 219.088 312.354 225.531 304.337 225.817H276.276C260.814 225.817 246.64 214.507 245.352 199.045C244.493 190.025 247.929 181.578 253.942 175.708C259.239 170.268 266.54 167.118 274.558 167.118H304.337C312.354 167.405 318.654 173.847 318.654 181.722Z" stroke="#9B9B9B" stroke-width="20" stroke-linecap="round" stroke-linejoin="round"/>
<path d="M95.9011 153.515H196.119" stroke="#9B9B9B" stroke-width="20" stroke-linecap="round" stroke-linejoin="round"/>
<path d="M124.535 253.733C124.535 264.471 121.528 274.636 116.231 283.226C113.224 288.38 109.359 292.961 104.921 296.683C94.8989 305.703 81.7274 311 67.2674 311C46.3648 311 28.1824 299.833 18.3038 283.226C13.0065 274.636 10 264.471 10 253.733C10 235.694 18.3038 219.516 31.4753 209.064C41.3539 201.19 53.8095 196.466 67.2674 196.466C98.9076 196.466 124.535 222.093 124.535 253.733Z" stroke="#9B9B9B" stroke-width="20" stroke-miterlimit="10" stroke-linecap="round" stroke-linejoin="round"/>
<path d="M82.5821 268.621L52.2304 238.412" stroke="#9B9B9B" stroke-width="20" stroke-miterlimit="10" stroke-linecap="round" stroke-linejoin="round"/>
<path d="M82.2953 238.842L51.9436 269.05" stroke="#9B9B9B" stroke-width="20" stroke-miterlimit="10" stroke-linecap="round" stroke-linejoin="round"/>
</svg>
