<svg width="84" height="53" viewBox="0 0 84 53" fill="none" xmlns="http://www.w3.org/2000/svg">
<path d="M4 0C1.79086 0 0 1.79086 0 4C0 6.20914 1.79086 8 4 8V0ZM4 8H83.5439V0H4V8Z" fill="white"/>
<path d="M19.0059 22C16.7968 21.9967 15.0033 23.7849 15 25.9941C14.9967 28.2032 16.7849 29.9967 18.9941 30L19.0059 22ZM18.9941 30L83.538 30.0956L83.5499 22.0956L19.0059 22L18.9941 30Z" fill="white"/>
<path d="M34.5 44.1912C32.2909 44.1912 30.5 45.982 30.5 48.1912C30.5 50.4003 32.2909 52.1912 34.5 52.1912V44.1912ZM34.5 52.1912H83.5439V44.1912H34.5V52.1912Z" fill="white"/>
</svg>
