<svg width="80" height="80" viewBox="0 0 80 80" fill="none" xmlns="http://www.w3.org/2000/svg">
<path d="M40.0534 79.9305C37.7093 79.9305 35.4025 79.1491 33.5793 77.5864L27.7008 72.5634C27.1054 72.0425 25.6172 71.5216 24.8358 71.5216H18.3245C12.8179 71.5216 8.35301 67.0568 8.35301 61.5501V55.1877C8.35301 54.4063 7.83211 52.918 7.34842 52.3599L2.28824 46.4068C-0.762747 42.7977 -0.762747 37.1422 2.28824 33.4959L7.34842 27.5426C7.83211 26.9845 8.35301 25.4962 8.35301 24.7149V18.3897C8.35301 12.883 12.8179 8.41813 18.3245 8.41813H24.7614C25.5427 8.41813 26.9938 7.86002 27.6263 7.33912L33.5049 2.31615C37.1512 -0.772049 42.8439 -0.772049 46.4902 2.31615L52.369 7.33912C52.9643 7.86002 54.4898 8.38092 55.2711 8.38092H61.5964C67.103 8.38092 71.5679 12.8458 71.5679 18.3525V24.6777C71.5679 25.459 72.126 26.9101 72.6469 27.5426L77.6699 33.4215C80.7953 37.105 80.7581 42.7977 77.6699 46.4068L72.6469 52.2855C72.126 52.918 71.6051 54.3691 71.6051 55.1505V61.4757C71.6051 66.9824 67.1402 71.4472 61.6336 71.4472H55.3083C54.527 71.4472 53.0759 72.0053 52.4062 72.5262L46.5275 77.5492C44.7043 79.1491 42.3602 79.9305 40.0534 79.9305ZM18.3245 13.9992C15.9061 13.9992 13.9341 15.9712 13.9341 18.3897V24.7149C13.9341 26.8357 12.9667 29.5146 11.59 31.1517L6.52986 37.105C5.26482 38.6305 5.26482 41.3094 6.52986 42.7977L11.5528 48.7136C12.8923 50.2391 13.8969 53.0297 13.8969 55.1505V61.5129C13.8969 63.9314 15.8689 65.9034 18.2873 65.9034H24.7614C26.845 65.9034 29.5983 66.908 31.2354 68.2846L37.1512 73.3448C38.6767 74.647 41.3557 74.647 42.8811 73.3448L48.7599 68.3218C50.4342 66.908 53.1503 65.9406 55.2339 65.9406H61.5592C63.9776 65.9406 65.9496 63.9686 65.9496 61.5501V55.2249C65.9496 53.1413 66.9542 50.4252 68.3309 48.7508L73.391 42.8349C74.6933 41.3094 74.6933 38.6305 73.391 37.105L68.3681 31.2261C66.9542 29.5518 65.9868 26.8357 65.9868 24.7521V18.3897C65.9868 15.9712 64.0148 13.9992 61.5964 13.9992H55.2711C53.1503 13.9992 50.397 12.9946 48.7599 11.6179L42.8439 6.55777C41.3184 5.25552 38.6767 5.25552 37.114 6.55777L31.2726 11.6179C29.5983 12.9946 26.8822 13.9992 24.7614 13.9992H18.3245Z" fill="#292D32"/>
<path d="M40.0195 58.0896C37.9732 58.0896 36.2988 56.4153 36.2988 54.3689C36.2988 52.3225 37.9359 50.6482 40.0195 50.6482C42.0659 50.6482 43.7403 52.3225 43.7403 54.3689C43.7403 56.4153 42.1032 58.0896 40.0195 58.0896Z" fill="#292D32"/>
<path d="M40.0195 46.3685C38.494 46.3685 37.229 45.1034 37.229 43.578V25.5696C37.229 24.0441 38.494 22.7791 40.0195 22.7791C41.545 22.7791 42.8101 24.0441 42.8101 25.5696V43.5407C42.8101 45.1034 41.5822 46.3685 40.0195 46.3685Z" fill="#292D32"/>
</svg>
