<svg width="66" height="65" viewBox="0 0 66 65" fill="none" xmlns="http://www.w3.org/2000/svg">
<path d="M29.6095 2.75684H23.5851C8.52433 2.75684 2.5 8.78116 2.5 23.842V41.915C2.5 56.9758 8.52433 63.0001 23.5851 63.0001H41.6581C56.7189 63.0001 62.7433 56.9758 62.7433 41.915V35.8906" stroke="#D1D1D1" stroke-width="4" stroke-linecap="round" stroke-linejoin="round"/>
<path d="M44.7905 5.82915L21.0547 29.565C20.151 30.4686 19.2474 32.2458 19.0666 33.541L17.7714 42.6076C17.2895 45.8909 19.6088 48.1801 22.8921 47.7283L31.9587 46.4331C33.2238 46.2523 35.001 45.3487 35.9348 44.445L59.6706 20.7092C63.7671 16.6127 65.6949 11.8535 59.6706 5.82915C53.6463 -0.195176 48.8871 1.73261 44.7905 5.82915Z" stroke="#D1D1D1" stroke-width="4" stroke-miterlimit="10" stroke-linecap="round" stroke-linejoin="round"/>
<path d="M41.3872 9.23267C43.4054 16.4317 49.0381 22.0645 56.2673 24.1127" stroke="#D1D1D1" stroke-width="4" stroke-miterlimit="10" stroke-linecap="round" stroke-linejoin="round"/>
</svg>
