<svg width="80" height="80" viewBox="0 0 80 80" fill="none" xmlns="http://www.w3.org/2000/svg">
<path d="M38.1396 76.2793C17.1163 76.2793 0 59.1629 0 38.1396C0 17.1163 17.1163 0 38.1396 0C59.1629 0 76.2793 17.1163 76.2793 38.1396C76.2793 59.1629 59.1629 76.2793 38.1396 76.2793ZM38.1396 5.58141C20.1675 5.58141 5.58141 20.2047 5.58141 38.1396C5.58141 56.0746 20.1675 70.6979 38.1396 70.6979C56.1118 70.6979 70.6979 56.0746 70.6979 38.1396C70.6979 20.2047 56.1118 5.58141 38.1396 5.58141Z" fill="white"/>
<path d="M77.2111 80C76.5041 80 75.7971 79.7395 75.239 79.1813L67.7971 71.7395C66.718 70.6604 66.718 68.8743 67.7971 67.7953C68.8762 66.7162 70.6622 66.7162 71.7413 67.7953L79.1832 75.2371C80.2622 76.3162 80.2622 78.1023 79.1832 79.1813C78.625 79.7395 77.9181 80 77.2111 80Z" fill="white"/>
</svg>
