<svg width="64" height="64" viewBox="0 0 64 64" fill="none" xmlns="http://www.w3.org/2000/svg">
<path d="M39.3367 24.6627L24.6628 39.3365C22.7778 37.4515 21.6178 34.8705 21.6178 31.9995C21.6178 26.2576 26.2577 21.6177 31.9997 21.6177C34.8707 21.6177 37.4517 22.7777 39.3367 24.6627Z" stroke="#6F6F6F" stroke-width="5" stroke-linecap="round" stroke-linejoin="round"/>
<path d="M48.8774 13.9328C43.8024 10.1048 38.0024 8.01685 31.9994 8.01685C21.7623 8.01685 12.2213 14.0488 5.58033 24.4888C2.97033 28.5779 2.97033 35.4509 5.58033 39.5399C7.87133 43.1358 10.5393 46.2388 13.4393 48.7328" stroke="#6F6F6F" stroke-width="5" stroke-linecap="round" stroke-linejoin="round"/>
<path d="M21.6178 53.8366C24.9238 55.2286 28.4327 55.9826 31.9997 55.9826C42.2366 55.9826 51.7776 49.9506 58.4186 39.5107C61.0286 35.4217 61.0286 28.5487 58.4186 24.4595C57.4616 22.9515 56.4176 21.5305 55.3446 20.1965" stroke="#6F6F6F" stroke-width="5" stroke-linecap="round" stroke-linejoin="round"/>
<path d="M42.179 34.0298C41.425 38.1188 38.09 41.4538 34.001 42.2078" stroke="#6F6F6F" stroke-width="5" stroke-linecap="round" stroke-linejoin="round"/>
<path d="M24.663 39.3369L3 60.9999" stroke="#6F6F6F" stroke-width="5" stroke-linecap="round" stroke-linejoin="round"/>
<path d="M60.9992 3L39.3363 24.663" stroke="#6F6F6F" stroke-width="5" stroke-linecap="round" stroke-linejoin="round"/>
</svg>
