<svg width="72" height="83" viewBox="0 0 72 83" fill="none" xmlns="http://www.w3.org/2000/svg">
<path d="M36.1018 6.72534C22.4841 6.72534 11.4172 17.0569 11.4172 29.7697V40.8694C11.4172 43.2122 10.3476 46.7841 9.07223 48.7813L4.34105 56.1171C1.42006 60.6492 3.43596 65.6805 8.78424 67.3704C26.5159 72.9011 45.6464 72.9011 63.3781 67.3704C68.3561 65.8341 70.5365 60.3419 67.8212 56.1171L63.0901 48.7813C61.8559 46.7841 60.7862 43.2122 60.7862 40.8694V29.7697C60.7862 17.0953 49.6782 6.72534 36.1018 6.72534Z" stroke="white" stroke-width="5" stroke-miterlimit="10" stroke-linecap="round"/>
<path d="M43.7146 7.83932C42.4392 7.49365 41.1227 7.2248 39.7651 7.07117C35.8156 6.61029 32.0307 6.87914 28.4926 7.83932C29.6856 4.99718 32.6478 3 36.1036 3C39.5594 3 42.5215 4.99718 43.7146 7.83932Z" stroke="white" stroke-width="5" stroke-miterlimit="10" stroke-linecap="round" stroke-linejoin="round"/>
<path d="M48.4432 68.7539C48.4432 75.0911 42.8893 80.2761 36.101 80.2761C32.7275 80.2761 29.6008 78.9702 27.3793 76.8962C25.1577 74.8223 23.7589 71.9033 23.7589 68.7539" stroke="white" stroke-width="5" stroke-miterlimit="10"/>
</svg>
