<svg width="86" height="85" viewBox="0 0 86 85" fill="none" xmlns="http://www.w3.org/2000/svg">
<path d="M49.9106 8.72936L56.9498 22.8078C57.9097 24.7676 60.4694 26.6474 62.6292 27.0073L75.3877 29.1271C83.5468 30.4869 85.4666 36.4062 79.5873 42.2456L69.6684 52.1644C67.9886 53.8443 67.0687 57.0839 67.5886 59.4036L70.4283 71.6823C72.668 81.4012 67.5086 85.1607 58.9096 80.0813L46.9509 73.0021C44.7912 71.7223 41.2316 71.7223 39.0318 73.0021L27.073 80.0813C18.514 85.1607 13.3146 81.3612 15.5543 71.6823L18.394 59.4036C18.9139 57.0839 17.994 53.8443 16.3142 52.1644L6.39535 42.2456C0.556004 36.4062 2.43579 30.4869 10.5949 29.1271L23.3534 27.0073C25.4732 26.6474 28.0329 24.7676 28.9928 22.8078L36.0321 8.72936C39.8717 1.09021 46.111 1.09021 49.9106 8.72936Z" stroke="#284A3A" stroke-width="5" stroke-linecap="round" stroke-linejoin="round"/>
</svg>
