<svg width="75" height="64" viewBox="0 0 75 64" fill="none" xmlns="http://www.w3.org/2000/svg">
<path d="M50.0131 32.1257C50.0131 39.0906 44.3849 44.7188 37.42 44.7188C30.4551 44.7188 24.8271 39.0906 24.8271 32.1257C24.8271 25.1608 30.4551 19.5327 37.42 19.5327C44.3849 19.5327 50.0131 25.1608 50.0131 32.1257Z" stroke="#6F6F6F" stroke-width="5" stroke-linecap="round" stroke-linejoin="round"/>
<path d="M37.4201 61.2168C49.8373 61.2168 61.4102 53.9001 69.4656 41.2367C72.6315 36.2768 72.6315 27.9401 69.4656 22.9801C61.4102 10.3167 49.8373 3 37.4201 3C25.0027 3 13.4298 10.3167 5.3744 22.9801C2.20853 27.9401 2.20853 36.2768 5.3744 41.2367C13.4298 53.9001 25.0027 61.2168 37.4201 61.2168Z" stroke="#6F6F6F" stroke-width="5" stroke-linecap="round" stroke-linejoin="round"/>
</svg>
