<svg width="80" height="80" viewBox="0 0 80 80" fill="none" xmlns="http://www.w3.org/2000/svg">
<path d="M72.2205 43.7021C70.7999 43.7021 69.6037 42.618 69.4167 41.1974C68.5195 32.7487 63.9588 25.0851 56.9307 20.2253C55.6596 19.3281 55.3606 17.6084 56.2204 16.3374C57.1176 15.0664 58.8746 14.7673 60.1083 15.6271C68.4822 21.4216 73.8654 30.5431 74.9495 40.5993C75.099 42.132 74.0149 43.5152 72.4448 43.7021C72.4074 43.7021 72.2953 43.7021 72.2205 43.7021Z" fill="#284A3A"/>
<path d="M8.18383 43.8885C8.07168 43.8885 7.99692 43.8885 7.88477 43.8885C6.35204 43.7016 5.23054 42.3184 5.38007 40.7857C6.38943 30.7296 11.7353 21.6454 19.997 15.7762C21.268 14.879 23.0251 15.1781 23.9223 16.4491C24.8195 17.7201 24.5204 19.4772 23.2494 20.3744C16.296 25.2716 11.81 32.9352 10.9502 41.3838C10.8381 42.8044 9.6044 43.8885 8.18383 43.8885Z" fill="#284A3A"/>
<path d="M40.2216 79.3653C34.6889 79.3653 29.4177 78.0943 24.4831 75.627C23.0999 74.9167 22.5392 73.2345 23.2494 71.8513C23.9597 70.4681 25.642 69.9073 27.0252 70.6176C35.1001 74.6924 44.8198 74.7672 52.9694 70.8419C54.3526 70.169 56.0348 70.7671 56.7077 72.1503C57.3806 73.5335 56.7825 75.2158 55.3993 75.8887C50.6142 78.2064 45.5301 79.3653 40.2216 79.3653Z" fill="#284A3A"/>
<path d="M40.2191 26.3927C32.9293 26.3927 27.0227 20.4861 27.0227 13.1964C27.0227 5.90659 32.9293 0 40.2191 0C47.5088 0 53.4154 5.90659 53.4154 13.1964C53.4154 20.4861 47.4715 26.3927 40.2191 26.3927ZM40.2191 5.6449C36.0321 5.6449 32.6302 9.04679 32.6302 13.2337C32.6302 17.4207 36.0321 20.8226 40.2191 20.8226C44.406 20.8226 47.8079 17.4207 47.8079 13.2337C47.8079 9.04679 44.3686 5.6449 40.2191 5.6449Z" fill="#284A3A"/>
<path d="M13.1964 72.1134C5.90659 72.1134 0 66.2068 0 58.9171C0 51.6647 5.90659 45.7207 13.1964 45.7207C20.4861 45.7207 26.3927 51.6273 26.3927 58.9171C26.3927 66.1695 20.4861 72.1134 13.1964 72.1134ZM13.1964 51.3282C9.00941 51.3282 5.60752 54.7301 5.60752 58.9171C5.60752 63.104 9.00941 66.5059 13.1964 66.5059C17.3833 66.5059 20.7852 63.104 20.7852 58.9171C20.7852 54.7301 17.3833 51.3282 13.1964 51.3282Z" fill="#284A3A"/>
<path d="M66.8035 72.1134C59.5138 72.1134 53.6072 66.2068 53.6072 58.9171C53.6072 51.6647 59.5138 45.7207 66.8035 45.7207C74.0933 45.7207 79.9999 51.6273 79.9999 58.9171C79.9625 66.1695 74.0559 72.1134 66.8035 72.1134ZM66.8035 51.3282C62.6166 51.3282 59.2147 54.7301 59.2147 58.9171C59.2147 63.104 62.6166 66.5059 66.8035 66.5059C70.9905 66.5059 74.3924 63.104 74.3924 58.9171C74.355 54.7301 70.9905 51.3282 66.8035 51.3282Z" fill="#284A3A"/>
</svg>
