<svg width="58" height="58" viewBox="0 0 58 58" fill="none" xmlns="http://www.w3.org/2000/svg">
<path d="M43.5 0H14.5C6.496 0 0 6.467 0 14.442V31.784V34.684C0 42.659 6.496 49.126 14.5 49.126H18.85C19.633 49.126 20.677 49.648 21.17 50.286L25.52 56.057C27.434 58.609 30.566 58.609 32.48 56.057L36.83 50.286C37.381 49.561 38.251 49.126 39.15 49.126H43.5C51.504 49.126 58 42.659 58 34.684V14.442C58 6.467 51.504 0 43.5 0ZM17.4 29C15.776 29 14.5 27.695 14.5 26.1C14.5 24.505 15.805 23.2 17.4 23.2C18.995 23.2 20.3 24.505 20.3 26.1C20.3 27.695 19.024 29 17.4 29ZM29 29C27.376 29 26.1 27.695 26.1 26.1C26.1 24.505 27.405 23.2 29 23.2C30.595 23.2 31.9 24.505 31.9 26.1C31.9 27.695 30.624 29 29 29ZM40.6 29C38.976 29 37.7 27.695 37.7 26.1C37.7 24.505 39.005 23.2 40.6 23.2C42.195 23.2 43.5 24.505 43.5 26.1C43.5 27.695 42.224 29 40.6 29Z" fill="#284A3A"/>
</svg>
