<svg width="82" height="80" viewBox="0 0 82 80" fill="none" xmlns="http://www.w3.org/2000/svg">
<path d="M55.2023 79.2117L54.7071 79.2182C37.7947 79.4397 29.5559 72.8805 27.9509 57.9673C27.7781 56.4076 28.9024 54.9832 30.5002 54.8099C32.06 54.6371 33.4848 55.7995 33.6576 57.3592C34.9189 69.3053 40.6148 73.6881 54.6704 73.504L55.1656 73.4975C70.6686 73.2945 76.0819 67.7375 75.8788 52.2345L75.5535 27.399C75.3505 11.8959 69.7935 6.48267 54.2904 6.68574L53.7953 6.69222C39.6635 6.87732 34.0854 11.484 33.2166 23.6866C33.0466 25.2508 31.7669 26.4486 30.127 26.3177C28.5257 26.2244 27.3645 24.83 27.4583 23.2668C28.5549 8.08956 36.6556 1.20208 53.6823 0.979061L54.1775 0.972575C72.8802 0.727604 80.9841 8.62195 81.2291 27.3247L81.5544 52.1601C81.7994 70.8628 73.905 78.9667 55.2023 79.2117Z" fill="#FF1414" fill-opacity="0.83"/>
<path d="M53.3543 42.9672L4.293 43.6098C2.73126 43.6303 1.4192 42.3522 1.39875 40.7904C1.37829 39.2287 2.65642 37.9166 4.21816 37.8962L53.2795 37.2536C54.8412 37.2331 56.1532 38.5112 56.1737 40.073C56.1942 41.6347 54.9541 42.9463 53.3543 42.9672Z" fill="#FF1414" fill-opacity="0.83"/>
<path d="M45.0263 55.839C44.3026 55.8485 43.5754 55.5913 42.9965 55.0275C41.8774 53.9373 41.8535 52.1089 42.9436 50.9898L53.5446 40.1074L42.6622 29.5064C41.5431 28.4162 41.5192 26.5879 42.6094 25.4688C43.6995 24.3496 45.5279 24.3257 46.647 25.4159L59.5747 38.0093C60.6938 39.0994 60.7177 40.9278 59.6275 42.0469L47.0342 54.9746C46.4703 55.5534 45.7501 55.8295 45.0263 55.839Z" fill="#FF1414" fill-opacity="0.83"/>
</svg>
