<svg width="77" height="77" viewBox="0 0 77 77" fill="none" xmlns="http://www.w3.org/2000/svg">
<g filter="url(#filter0_d_0_70)">
<path d="M72.8415 34.4208C72.8415 15.4549 57.3866 0 38.4208 0C19.4549 0 4 15.4549 4 34.4208C4 44.4028 8.30259 53.3866 15.1179 59.6856C15.1179 59.72 15.1179 59.72 15.0835 59.7544C15.4277 60.0986 15.8407 60.374 16.1849 60.6838C16.3915 60.8559 16.5636 61.028 16.7701 61.1657C17.3897 61.682 18.0781 62.1639 18.7321 62.6458C18.973 62.8179 19.1796 62.9556 19.4205 63.1277C20.0745 63.5751 20.7629 63.9882 21.4857 64.3668C21.7267 64.5045 22.0021 64.6766 22.243 64.8143C22.9314 65.1929 23.6542 65.5371 24.4115 65.8469C24.6869 65.9846 24.9622 66.1223 25.2376 66.2255C25.9949 66.5353 26.7521 66.8107 27.5094 67.0516C27.7847 67.1549 28.0601 67.2581 28.3355 67.327C29.1616 67.5679 29.9877 67.7745 30.8138 67.981C31.0547 68.0498 31.2957 68.1187 31.571 68.1531C32.5348 68.3596 33.4986 68.4973 34.4968 68.6006C34.6345 68.6006 34.7722 68.635 34.9098 68.6694C36.0801 68.7727 37.2504 68.8415 38.4208 68.8415C39.5911 68.8415 40.7614 68.7727 41.8973 68.6694C42.0349 68.6694 42.1726 68.635 42.3103 68.6006C43.3085 68.4973 44.2723 68.3596 45.2361 68.1531C45.477 68.1187 45.718 68.0154 45.9933 67.981C46.8194 67.7745 47.6799 67.6024 48.4716 67.327C48.747 67.2237 49.0223 67.1205 49.2977 67.0516C50.055 66.7763 50.8466 66.5353 51.5695 66.2255C51.8448 66.1223 52.1202 65.9846 52.3956 65.8469C53.1184 65.5371 53.8413 65.1929 54.5641 64.8143C54.8395 64.6766 55.0804 64.5045 55.3213 64.3668C56.0098 63.9538 56.6982 63.5751 57.3866 63.1277C57.6275 62.99 57.8341 62.8179 58.075 62.6458C58.7634 62.1639 59.4174 61.682 60.037 61.1657C60.2435 60.9936 60.4156 60.8215 60.6221 60.6838C61.0008 60.374 61.3794 60.0642 61.7236 59.7544C61.7236 59.72 61.7236 59.72 61.6892 59.6856C68.5389 53.3866 72.8415 44.4028 72.8415 34.4208ZM55.4246 51.5279C46.0966 45.2633 30.8138 45.2633 21.4169 51.5279C19.9024 52.5261 18.6632 53.6964 17.6306 54.9699C12.3987 49.6691 9.16311 42.4064 9.16311 34.4208C9.16311 18.2774 22.2774 5.16311 38.4208 5.16311C54.5641 5.16311 67.6784 18.2774 67.6784 34.4208C67.6784 42.4064 64.4428 49.6691 59.2109 54.9699C58.2127 53.6964 56.9391 52.5261 55.4246 51.5279Z" fill="#6F6F6F"/>
<path d="M38.4208 16.9683C31.2957 16.9683 25.513 22.7509 25.513 29.8761C25.513 36.8635 30.9859 42.5429 38.2487 42.7494H38.5585H38.7994H38.8683C45.8212 42.5085 51.2941 36.8635 51.3286 29.8761C51.3286 22.7509 45.5459 16.9683 38.4208 16.9683Z" fill="#6F6F6F"/>
</g>
<defs>
<filter id="filter0_d_0_70" x="0" y="0" width="76.8415" height="76.8416" filterUnits="userSpaceOnUse" color-interpolation-filters="sRGB">
<feFlood flood-opacity="0" result="BackgroundImageFix"/>
<feColorMatrix in="SourceAlpha" type="matrix" values="0 0 0 0 0 0 0 0 0 0 0 0 0 0 0 0 0 0 127 0" result="hardAlpha"/>
<feOffset dy="4"/>
<feGaussianBlur stdDeviation="2"/>
<feComposite in2="hardAlpha" operator="out"/>
<feColorMatrix type="matrix" values="0 0 0 0 0 0 0 0 0 0 0 0 0 0 0 0 0 0 0.25 0"/>
<feBlend mode="normal" in2="BackgroundImageFix" result="effect1_dropShadow_0_70"/>
<feBlend mode="normal" in="SourceGraphic" in2="effect1_dropShadow_0_70" result="shape"/>
</filter>
</defs>
</svg>
