<svg width="82" height="80" viewBox="0 0 82 80" fill="none" xmlns="http://www.w3.org/2000/svg">
<path d="M40.7053 65.578C39.1534 65.578 37.8665 64.291 37.8665 62.7391V51.3836C37.8665 49.8316 39.1534 48.5447 40.7053 48.5447C42.2573 48.5447 43.5442 49.8316 43.5442 51.3836V62.7391C43.5442 64.291 42.2573 65.578 40.7053 65.578Z" fill="white"/>
<path d="M61.9059 80H19.512C12.623 80 6.33959 74.7007 5.20403 67.9253L0.16974 37.7574C-0.663 33.0637 1.64596 27.0452 5.39329 24.0549L31.6246 3.04714C36.6966 -1.04086 44.6833 -1.00301 49.7933 3.08499L76.0246 24.0549C79.7341 27.0452 82.0052 33.0637 81.2482 37.7574L76.2139 67.8874C75.0783 74.5872 68.6435 80 61.9059 80ZM40.671 5.69676C38.6649 5.69676 36.6587 6.30239 35.1825 7.4758L8.95136 28.5214C6.83166 30.2247 5.31759 34.1614 5.77181 36.8489L10.8061 66.979C11.4874 70.9534 15.4619 74.3222 19.512 74.3222H61.9059C65.9561 74.3222 69.9305 70.9534 70.6118 66.9411L75.6461 36.8111C76.0625 34.1614 74.5484 30.149 72.4666 28.4836L46.2353 7.51365C44.7212 6.30239 42.6772 5.69676 40.671 5.69676Z" fill="white"/>
</svg>
