<svg width="263" height="391" viewBox="0 0 263 391" fill="none" xmlns="http://www.w3.org/2000/svg">
<path d="M259.31 127.631C243.811 39.7362 184.324 0.164551 132.07 0.164551C132.07 0.164551 132.07 0.164551 131.922 0.164551C79.815 0.164551 20.1803 39.5459 4.68116 127.441C-12.5893 225.609 34.0557 308.747 76.2723 361.065C91.9191 380.471 111.995 390.173 132.07 390.173C152.145 390.173 172.22 380.471 187.719 361.065C229.936 308.747 276.58 225.799 259.31 127.631ZM132.07 222.945C106.385 222.945 85.5718 196.12 85.5718 163.017C85.5718 129.914 106.385 103.089 132.07 103.089C157.754 103.089 178.567 129.914 178.567 163.017C178.567 196.12 157.754 222.945 132.07 222.945Z" fill="#292D32"/>
</svg>
