<svg width="803" height="374" viewBox="0 0 803 374" fill="none" xmlns="http://www.w3.org/2000/svg">
<path d="M134.469 198C127.509 198 122.149 195.76 118.389 191.28C115.189 187.44 113.589 182.56 113.589 176.64V126.12L123.909 120.6V176.28C123.909 184.28 127.829 188.28 135.669 188.28H143.589V198H134.469ZM157.698 117.96C154.018 117.96 152.178 116.08 152.178 112.32C152.178 108.64 154.018 106.8 157.698 106.8C161.378 106.8 163.218 108.64 163.218 112.32C163.218 116.08 161.378 117.96 157.698 117.96ZM150.138 132.24C146.218 132.24 144.258 130.24 144.258 126.24C144.258 122.32 146.218 120.36 150.138 120.36C153.978 120.36 155.898 122.32 155.898 126.24C155.898 130.24 153.978 132.24 150.138 132.24ZM159.498 126.24C159.498 122.32 161.458 120.36 165.378 120.36C169.218 120.36 171.138 122.32 171.138 126.24C171.138 130.24 169.218 132.24 165.378 132.24C161.458 132.24 159.498 130.24 159.498 126.24ZM178.098 188.28H186.018V198H176.898C170.258 198 165.018 195.88 161.178 191.64C157.338 195.88 152.098 198 145.458 198H136.337V188.28H144.258C152.098 188.28 156.018 184.28 156.018 176.28V151.44L166.338 145.92V176.28C166.338 184.28 170.258 188.28 178.098 188.28ZM198.439 165.48C198.439 158.52 200.519 153.12 204.679 149.28C208.359 146 213.159 144.36 219.079 144.36C226.679 144.36 232.519 147.16 236.599 152.76C240.119 157.48 241.879 163.64 241.879 171.24C241.879 179.88 239.639 186.64 235.159 191.52C231.239 195.84 226.119 198 219.799 198C212.599 198 207.119 196 203.359 192C199.519 196 194.359 198 187.879 198H178.759V188.28H186.679C194.519 188.28 198.439 184.28 198.439 176.28V165.48ZM208.759 177.12C208.759 184.56 212.399 188.28 219.679 188.28C223.439 188.28 226.359 186.76 228.439 183.72C230.599 180.68 231.679 176.44 231.679 171C231.679 165.64 230.559 161.48 228.319 158.52C226.079 155.48 222.999 153.96 219.079 153.96C212.199 153.96 208.759 157.96 208.759 165.96V177.12ZM291.114 188.28H299.034V198H289.914C285.834 198 282.314 197.2 279.354 195.6C278.634 203.52 275.874 209.84 271.074 214.56C266.674 218.88 261.154 221.04 254.514 221.04C249.714 221.04 245.034 219.84 240.474 217.44V208.44C244.554 210.68 248.634 211.8 252.714 211.8C257.834 211.8 261.834 210.08 264.714 206.64C267.594 203.2 269.034 198.44 269.034 192.36V151.44L279.354 145.92V146.04L279.474 145.92V178.68C280.194 185.08 284.074 188.28 291.114 188.28ZM291.845 198V188.28H298.205C306.525 188.28 310.685 183.92 310.685 175.2V126.12L321.125 120.6V175.32C321.125 182.44 319.005 188.08 314.765 192.24C310.765 196.08 305.525 198 299.045 198H291.845ZM342.691 198V126.12L353.011 120.6V198H342.691ZM434.733 142.2C430.813 142.2 428.853 140.2 428.853 136.2C428.853 132.28 430.813 130.32 434.733 130.32C438.573 130.32 440.493 132.28 440.493 136.2C440.493 140.2 438.573 142.2 434.733 142.2ZM449.973 142.2C446.053 142.2 444.093 140.2 444.093 136.2C444.093 132.28 446.053 130.32 449.973 130.32C453.813 130.32 455.733 132.28 455.733 136.2C455.733 140.2 453.813 142.2 449.973 142.2ZM422.613 198C416.133 198 411.053 195.84 407.373 191.52C404.173 187.76 402.573 182.84 402.573 176.76V162.24L412.893 156.72V175.8C412.893 184.12 416.773 188.28 424.533 188.28H464.373C472.133 188.28 476.013 184.12 476.013 175.8V151.44L486.333 145.92V176.76C486.333 183.72 484.213 189.12 479.973 192.96C476.213 196.32 471.373 198 465.453 198H422.613ZM526.461 198C519.501 198 514.141 195.76 510.381 191.28C507.181 187.44 505.581 182.56 505.581 176.64V126.12L515.901 120.6V176.28C515.901 184.28 519.821 188.28 527.661 188.28H535.581V198H526.461ZM570.09 188.28H578.01V198H568.89C562.25 198 557.01 195.88 553.17 191.64C549.33 195.88 544.09 198 537.45 198H528.33V188.28H536.25C544.09 188.28 548.01 184.28 548.01 176.28V151.44L558.33 145.92V176.28C558.33 184.28 562.25 188.28 570.09 188.28ZM541.41 210C545.25 210 547.17 212 547.17 216C547.17 219.92 545.25 221.88 541.41 221.88C537.49 221.88 535.53 219.92 535.53 216C535.53 212 537.49 210 541.41 210ZM556.65 210C560.49 210 562.41 212 562.41 216C562.41 219.92 560.49 221.88 556.65 221.88C552.73 221.88 550.77 219.92 550.77 216C550.77 212 552.73 210 556.65 210ZM609.872 132.12C605.952 132.12 603.992 130.12 603.992 126.12C603.992 122.2 605.952 120.24 609.872 120.24C613.712 120.24 615.632 122.2 615.632 126.12C615.632 130.12 613.712 132.12 609.872 132.12ZM570.752 198V188.28H592.352C588.672 184.2 586.832 178.52 586.832 171.24C586.832 162.52 589.112 155.72 593.672 150.84C597.672 146.52 602.992 144.36 609.632 144.36C616.432 144.36 621.712 146.48 625.472 150.72C628.672 154.48 630.272 159.4 630.272 165.48V176.88C630.192 183.52 628.232 188.76 624.392 192.6C620.632 196.2 615.632 198 609.392 198H570.752ZM619.952 165.96C619.952 157.96 616.512 153.96 609.632 153.96C605.712 153.96 602.632 155.48 600.392 158.52C598.152 161.48 597.032 165.64 597.032 171C597.032 176.28 598.112 180.48 600.272 183.6C602.432 186.72 605.312 188.28 608.912 188.28C616.272 188.28 619.952 184.44 619.952 176.76V165.96ZM680.179 194.16C677.139 195.36 673.419 195.96 669.019 195.96C661.899 195.96 656.299 193.28 652.219 187.92C648.779 183.36 647.059 177.64 647.059 170.76C647.059 162.28 649.339 155.64 653.899 150.84C657.979 146.52 663.339 144.36 669.979 144.36C676.779 144.36 682.019 146.48 685.699 150.72C688.979 154.48 690.619 159.4 690.619 165.48V191.64C690.619 200.68 688.259 207.84 683.539 213.12C679.059 218.08 673.099 220.56 665.659 220.56C660.699 220.56 656.019 219.4 651.619 217.08V207.96C655.859 210.2 660.059 211.32 664.219 211.32C668.939 211.32 672.699 209.8 675.499 206.76C678.299 203.8 679.859 199.6 680.179 194.16ZM680.179 165.96C680.179 157.96 676.779 153.96 669.979 153.96C665.979 153.96 662.819 155.44 660.499 158.4C658.259 161.36 657.139 165.4 657.139 170.52C657.139 175.56 658.219 179.6 660.379 182.64C662.619 185.6 665.619 187.08 669.379 187.08C674.659 187.08 678.259 185.6 680.179 182.64V165.96Z" fill="#E9E9E9"/>
<path d="M255.815 343L246.915 328.7H236.165V343H231.515V308.6H247.715C251.582 308.6 254.565 309.467 256.665 311.2C258.765 312.933 259.815 315.35 259.815 318.45C259.815 320.983 259.065 323.133 257.565 324.9C256.098 326.633 254.048 327.733 251.415 328.2L261.215 343H255.815ZM255.165 318.5C255.165 316.5 254.482 314.983 253.115 313.95C251.748 312.883 249.782 312.35 247.215 312.35H236.165V325.05H247.415C249.882 325.05 251.782 324.483 253.115 323.35C254.482 322.183 255.165 320.567 255.165 318.5ZM273.599 343.5C270.932 343.5 268.932 342.8 267.599 341.4C266.266 340 265.599 338.083 265.599 335.65C265.599 332.917 266.499 330.817 268.299 329.35C270.099 327.883 272.999 327.1 276.999 327L282.949 326.9V325.45C282.949 323.283 282.482 321.75 281.549 320.85C280.649 319.917 279.216 319.45 277.249 319.45C275.282 319.45 273.849 319.783 272.949 320.45C272.082 321.117 271.549 322.183 271.349 323.65L266.749 323.2C267.516 318.467 271.049 316.1 277.349 316.1C280.682 316.1 283.182 316.867 284.849 318.4C286.549 319.9 287.399 322.1 287.399 325V336.35C287.399 337.65 287.566 338.633 287.899 339.3C288.232 339.967 288.882 340.3 289.849 340.3C290.282 340.3 290.766 340.233 291.299 340.1V342.85C290.166 343.117 289.032 343.25 287.899 343.25C286.266 343.25 285.082 342.833 284.349 342C283.616 341.133 283.199 339.783 283.099 337.95H282.949C281.816 339.95 280.499 341.383 278.999 342.25C277.532 343.083 275.732 343.5 273.599 343.5ZM274.599 340.2C276.199 340.2 277.616 339.833 278.849 339.1C280.116 338.367 281.116 337.367 281.849 336.1C282.582 334.8 282.949 333.483 282.949 332.15V329.95L278.099 330.05C276.032 330.083 274.466 330.3 273.399 330.7C272.366 331.1 271.549 331.7 270.949 332.5C270.382 333.3 270.099 334.367 270.099 335.7C270.099 337.133 270.482 338.25 271.249 339.05C272.049 339.817 273.166 340.2 274.599 340.2ZM310.032 343V326.25C310.032 323.683 309.682 321.917 308.982 320.95C308.282 319.983 307.016 319.5 305.182 319.5C303.316 319.5 301.832 320.217 300.732 321.65C299.632 323.083 299.082 325.1 299.082 327.7V343H294.732V322.2C294.732 319.133 294.682 317.267 294.582 316.6H298.732C298.732 316.667 298.732 316.883 298.732 317.25C298.766 317.617 298.799 318.033 298.832 318.5C298.866 318.933 298.899 319.8 298.932 321.1H298.982C299.949 319.233 301.032 317.933 302.232 317.2C303.466 316.467 304.966 316.1 306.732 316.1C308.732 316.1 310.316 316.5 311.482 317.3C312.649 318.1 313.449 319.367 313.882 321.1H313.982C314.882 319.333 315.982 318.067 317.282 317.3C318.582 316.5 320.149 316.1 321.982 316.1C324.649 316.1 326.582 316.833 327.782 318.3C329.016 319.733 329.632 322.1 329.632 325.4V343H325.282V326.25C325.282 323.683 324.932 321.917 324.232 320.95C323.532 319.983 322.266 319.5 320.432 319.5C318.499 319.5 316.999 320.217 315.932 321.65C314.899 323.05 314.382 325.067 314.382 327.7V343H310.032ZM346.433 342.8C344.999 343.2 343.533 343.4 342.033 343.4C338.499 343.4 336.733 341.4 336.733 337.4V319.8H333.683V316.6H336.883L338.183 310.7H341.133V316.6H346.033V319.8H341.133V336.45C341.133 337.717 341.333 338.617 341.733 339.15C342.166 339.65 342.899 339.9 343.933 339.9C344.499 339.9 345.333 339.783 346.433 339.55V342.8ZM354.5 321.1C355.466 319.367 356.6 318.1 357.9 317.3C359.233 316.5 360.916 316.1 362.95 316.1C365.816 316.1 367.933 316.817 369.3 318.25C370.666 319.65 371.35 322.033 371.35 325.4V343H366.9V326.25C366.9 324.383 366.733 323 366.4 322.1C366.066 321.2 365.5 320.55 364.7 320.15C363.933 319.717 362.866 319.5 361.5 319.5C359.433 319.5 357.766 320.217 356.5 321.65C355.266 323.083 354.65 325 354.65 327.4V343H350.25V306.75H354.65V316.2C354.65 317.2 354.616 318.233 354.55 319.3C354.483 320.333 354.45 320.933 354.45 321.1H354.5ZM384.683 343.5C382.016 343.5 380.016 342.8 378.683 341.4C377.35 340 376.683 338.083 376.683 335.65C376.683 332.917 377.583 330.817 379.383 329.35C381.183 327.883 384.083 327.1 388.083 327L394.033 326.9V325.45C394.033 323.283 393.566 321.75 392.633 320.85C391.733 319.917 390.3 319.45 388.333 319.45C386.366 319.45 384.933 319.783 384.033 320.45C383.166 321.117 382.633 322.183 382.433 323.65L377.833 323.2C378.6 318.467 382.133 316.1 388.433 316.1C391.766 316.1 394.266 316.867 395.933 318.4C397.633 319.9 398.483 322.1 398.483 325V336.35C398.483 337.65 398.65 338.633 398.983 339.3C399.316 339.967 399.966 340.3 400.933 340.3C401.366 340.3 401.85 340.233 402.383 340.1V342.85C401.25 343.117 400.116 343.25 398.983 343.25C397.35 343.25 396.166 342.833 395.433 342C394.7 341.133 394.283 339.783 394.183 337.95H394.033C392.9 339.95 391.583 341.383 390.083 342.25C388.616 343.083 386.816 343.5 384.683 343.5ZM385.683 340.2C387.283 340.2 388.7 339.833 389.933 339.1C391.2 338.367 392.2 337.367 392.933 336.1C393.666 334.8 394.033 333.483 394.033 332.15V329.95L389.183 330.05C387.116 330.083 385.55 330.3 384.483 330.7C383.45 331.1 382.633 331.7 382.033 332.5C381.466 333.3 381.183 334.367 381.183 335.7C381.183 337.133 381.566 338.25 382.333 339.05C383.133 339.817 384.25 340.2 385.683 340.2ZM451.984 325.45C451.984 328.983 451.284 332.083 449.884 334.75C448.518 337.417 446.568 339.467 444.034 340.9C441.501 342.3 438.568 343 435.234 343H422.384V308.6H433.784C439.584 308.6 444.068 310.067 447.234 313C450.401 315.9 451.984 320.05 451.984 325.45ZM447.334 325.45C447.334 321.183 446.151 317.933 443.784 315.7C441.451 313.467 438.084 312.35 433.684 312.35H427.034V339.25H434.734C437.234 339.25 439.434 338.7 441.334 337.6C443.268 336.5 444.751 334.917 445.784 332.85C446.818 330.75 447.334 328.283 447.334 325.45ZM461.068 330.7C461.068 333.733 461.685 336.083 462.918 337.75C464.185 339.383 466.035 340.2 468.468 340.2C470.368 340.2 471.885 339.817 473.018 339.05C474.185 338.283 474.968 337.317 475.368 336.15L479.218 337.25C477.651 341.417 474.068 343.5 468.468 343.5C464.568 343.5 461.585 342.333 459.518 340C457.485 337.667 456.468 334.2 456.468 329.6C456.468 325.267 457.485 321.933 459.518 319.6C461.585 317.267 464.501 316.1 468.268 316.1C476.035 316.1 479.918 320.783 479.918 330.15V330.7H461.068ZM475.368 327.35C475.135 324.583 474.435 322.567 473.268 321.3C472.101 320 470.418 319.35 468.218 319.35C466.085 319.35 464.385 320.067 463.118 321.5C461.885 322.9 461.218 324.85 461.118 327.35H475.368ZM492.251 343.5C489.585 343.5 487.585 342.8 486.251 341.4C484.918 340 484.251 338.083 484.251 335.65C484.251 332.917 485.151 330.817 486.951 329.35C488.751 327.883 491.651 327.1 495.651 327L501.601 326.9V325.45C501.601 323.283 501.135 321.75 500.201 320.85C499.301 319.917 497.868 319.45 495.901 319.45C493.935 319.45 492.501 319.783 491.601 320.45C490.735 321.117 490.201 322.183 490.001 323.65L485.401 323.2C486.168 318.467 489.701 316.1 496.001 316.1C499.335 316.1 501.835 316.867 503.501 318.4C505.201 319.9 506.051 322.1 506.051 325V336.35C506.051 337.65 506.218 338.633 506.551 339.3C506.885 339.967 507.535 340.3 508.501 340.3C508.935 340.3 509.418 340.233 509.951 340.1V342.85C508.818 343.117 507.685 343.25 506.551 343.25C504.918 343.25 503.735 342.833 503.001 342C502.268 341.133 501.851 339.783 501.751 337.95H501.601C500.468 339.95 499.151 341.383 497.651 342.25C496.185 343.083 494.385 343.5 492.251 343.5ZM493.251 340.2C494.851 340.2 496.268 339.833 497.501 339.1C498.768 338.367 499.768 337.367 500.501 336.1C501.235 334.8 501.601 333.483 501.601 332.15V329.95L496.751 330.05C494.685 330.083 493.118 330.3 492.051 330.7C491.018 331.1 490.201 331.7 489.601 332.5C489.035 333.3 488.751 334.367 488.751 335.7C488.751 337.133 489.135 338.25 489.901 339.05C490.701 339.817 491.818 340.2 493.251 340.2ZM523.435 342.8C522.001 343.2 520.535 343.4 519.035 343.4C515.501 343.4 513.735 341.4 513.735 337.4V319.8H510.685V316.6H513.885L515.185 310.7H518.135V316.6H523.035V319.8H518.135V336.45C518.135 337.717 518.335 338.617 518.735 339.15C519.168 339.65 519.901 339.9 520.935 339.9C521.501 339.9 522.335 339.783 523.435 339.55V342.8ZM531.502 321.1C532.468 319.367 533.602 318.1 534.902 317.3C536.235 316.5 537.918 316.1 539.952 316.1C542.818 316.1 544.935 316.817 546.302 318.25C547.668 319.65 548.352 322.033 548.352 325.4V343H543.902V326.25C543.902 324.383 543.735 323 543.402 322.1C543.068 321.2 542.502 320.55 541.702 320.15C540.935 319.717 539.868 319.5 538.502 319.5C536.435 319.5 534.768 320.217 533.502 321.65C532.268 323.083 531.652 325 531.652 327.4V343H527.252V306.75H531.652V316.2C531.652 317.2 531.618 318.233 531.552 319.3C531.485 320.333 531.452 320.933 531.452 321.1H531.502ZM574.735 335.7C574.735 338.2 573.785 340.133 571.885 341.5C570.018 342.833 567.402 343.5 564.035 343.5C560.735 343.5 558.185 342.967 556.385 341.9C554.618 340.8 553.468 339.1 552.935 336.8L556.835 336.05C557.202 337.45 557.968 338.483 559.135 339.15C560.302 339.817 561.935 340.15 564.035 340.15C566.268 340.15 567.902 339.817 568.935 339.15C569.968 338.45 570.485 337.417 570.485 336.05C570.485 335.017 570.118 334.183 569.385 333.55C568.685 332.883 567.535 332.333 565.935 331.9L562.785 331.05C560.252 330.417 558.452 329.783 557.385 329.15C556.318 328.517 555.485 327.75 554.885 326.85C554.285 325.95 553.985 324.85 553.985 323.55C553.985 321.15 554.835 319.317 556.535 318.05C558.268 316.783 560.785 316.15 564.085 316.15C566.985 316.15 569.285 316.667 570.985 317.7C572.718 318.733 573.818 320.383 574.285 322.65L570.335 323.15C570.068 321.95 569.402 321.05 568.335 320.45C567.268 319.817 565.852 319.5 564.085 319.5C562.085 319.5 560.602 319.8 559.635 320.4C558.702 321 558.235 321.917 558.235 323.15C558.235 323.883 558.435 324.5 558.835 325C559.235 325.467 559.818 325.883 560.585 326.25C561.352 326.583 562.968 327.05 565.435 327.65C567.735 328.217 569.402 328.75 570.435 329.25C571.468 329.75 572.285 330.3 572.885 330.9C573.485 331.5 573.935 332.2 574.235 333C574.568 333.8 574.735 334.7 574.735 335.7Z" fill="#E9E9E9" fill-opacity="0.5"/>
<path d="M429 37.8953H716" stroke="#B49B76" stroke-width="10" stroke-linecap="round"/>
<path d="M57 37.8953H344" stroke="#B49B76" stroke-width="10" stroke-linecap="round"/>
<path d="M393.613 66.5118C393.16 66.3721 392.707 66.2324 392.262 66.066C377.544 60.7981 368.779 44.9335 372.259 29.956C375.231 17.0982 386.131 7.58922 399.376 6.27479C403.135 5.91622 404.565 7.52453 405.073 8.52741C405.589 9.50368 406.094 11.5564 403.73 14.3003C401.634 16.7472 400.092 19.5695 399.166 22.669C395.579 34.4911 402.296 47.5351 414.113 51.7045C415.821 52.3185 417.567 52.7112 419.31 52.9276C423.025 53.3727 424.055 55.237 424.335 56.3157C424.616 57.3943 424.655 59.5369 421.636 61.7577C413.603 67.7438 403.234 69.4783 393.613 66.5118ZM376.32 30.8872C373.315 43.8516 380.929 57.5811 393.655 62.118C402.291 65.2479 411.838 63.8143 419.108 58.41C419.68 57.9736 419.99 57.6314 420.136 57.4429C419.904 57.3423 419.486 57.1841 418.778 57.1119C416.726 56.8585 414.66 56.3672 412.686 55.671C398.788 50.7725 390.916 35.417 395.125 21.4815C396.259 17.8039 398.072 14.4814 400.564 11.6022C401.012 11.0981 401.188 10.7148 401.281 10.5099C401.041 10.4359 400.598 10.3577 399.815 10.4372C388.347 11.5702 378.918 19.8109 376.32 30.8872Z" fill="#B49B76"/>
</svg>
