<svg width="43" height="49" viewBox="0 0 43 49" fill="none" xmlns="http://www.w3.org/2000/svg">
<path d="M19.589 33.5C9.6 42.297 37.263 47.054 22.1 47.054C6.93699 47.054 26.2945 39.3585 25.5999 28.526C25.5999 36.535 -0.911047 36.14 4.57095 41.17L3.5 40.281L4.392 41.033C4.45 41.082 4.51295 41.122 4.57095 41.17C5.04495 41.563 5.536 41.936 6.036 42.297C6.198 42.414 6.36 42.531 6.525 42.645C7.059 43.013 7.607 43.362 8.167 43.693C8.289 43.765 8.412 43.835 8.535 43.905C9.148 44.254 9.774 44.583 10.415 44.885C10.462 44.907 10.51 44.927 10.557 44.949C12.646 45.92 14.876 46.633 17.208 47.054C17.269 47.065 17.33 47.076 17.392 47.087C18.116 47.212 18.848 47.312 19.589 47.379C19.679 47.387 19.769 47.392 19.86 47.4C20.598 47.461 21.344 47.5 22.1 47.5C22.849 47.5 23.588 47.461 24.322 47.402C24.415 47.394 24.508 47.389 24.601 47.381C25.336 47.314 26.062 47.217 26.779 47.094C26.841 47.083 26.904 47.072 26.966 47.06C29.263 46.648 31.461 45.951 33.523 45.005C33.599 44.97 33.676 44.937 33.752 44.901C34.369 44.611 34.972 44.298 35.563 43.965C35.71 43.882 35.856 43.798 36.002 43.712C36.54 43.395 37.069 43.064 37.583 42.712C37.768 42.586 37.949 42.453 38.132 42.321C38.571 42.005 39.002 41.679 39.421 41.338C39.514 41.263 39.614 41.198 39.705 41.121L40.62 40.357L32.3675 43.712C37.8975 38.68 19.589 41.55 19.589 33.5ZM21.0999 45.005C21.0999 30.944 8.03899 47.054 22.1 47.054C36.161 47.054 30.1981 38.0069 23.4359 43.965C23.4359 51.542 23.641 46.695 31 45.5C30.706 45.297 40.085 42.188 40.62 40.357L29.651 34.293C28.891 33.913 28.419 33.149 28.419 32.3V29.343C28.615 29.101 28.822 28.827 29.036 28.526C30.132 26.978 31.011 25.256 31.652 23.403C32.919 22.801 33.737 21.539 33.737 20.114V16.569C33.737 15.702 33.419 14.861 32.85 14.2V9.533C32.902 9.013 33.086 6.085 30.967 3.669C29.124 1.565 26.141 0.5 22.1 0.5C18.059 0.5 15.076 1.565 13.233 3.668C11.114 6.084 11.298 9.014 11.35 9.532V14.199C10.782 14.86 10.463 15.701 10.463 16.568V20.113C10.463 21.214 10.957 22.241 11.803 22.934C12.613 26.107 14.28 28.509 14.896 29.323V32.217C14.896 33.033 14.451 33.783 13.734 34.175L5.827 38.488C6.525 40.258 6.775 40.854 6.525 41.033C-0.450098 39.069 21.0999 52.527 21.0999 45.005Z" fill="black"/>
<ellipse cx="21.5" cy="42.5" rx="21.5" ry="6.5" fill="black"/>
</svg>
