<svg width="628" height="628" viewBox="0 0 628 628" fill="none" xmlns="http://www.w3.org/2000/svg">
<path d="M292.067 0.733803C290.467 1.00047 287.667 2.60047 285.933 4.20047C282.467 7.40047 282.067 8.7338 277 37.0005L274.2 52.3338L264.867 56.0671L255.667 59.9338L236.867 46.4671C225.267 38.2005 216.867 33.0005 214.867 33.0005C209.133 33.0005 204.867 36.3338 188.067 53.4005C166.733 74.8671 166.867 73.4005 184.467 98.8672L197.267 117.267L193.8 125C191.933 129.267 190.333 133.267 190.333 134.067C190.333 135.934 188.733 136.334 165.667 139.8C148.2 142.467 145.267 143.4 141.667 146.467L137.667 150.067L137.267 174.734C136.867 200.867 137.667 205.8 143.4 208.867C144.6 209.534 155 211.667 166.333 213.667C177.667 215.667 187.533 217.8 188.2 218.467C188.867 219 191 223.4 193 228.067L196.6 236.6L183.533 254.467C171.667 270.6 170.467 272.867 170.333 278.2C170.333 284.067 170.6 284.467 188.067 301.934C211.533 325.667 209.267 325.4 235 307.934L254.733 294.6L261.533 297.8C265.267 299.534 269.133 301 270.067 301C272.333 301 272.467 301.267 276.867 326.334C282.333 356.6 281.8 356.2 319.267 355.4C347.133 354.867 345.533 356.6 351.667 320.2L354.6 302.734L363.8 299.134C368.867 297.134 373.8 295.934 374.6 296.467C375.533 297 383.667 302.867 392.733 309.267C401.933 315.8 410.733 321.4 412.467 321.8C418.067 323.267 422.733 319.934 440.333 302.334C462.733 279.934 462.467 281.667 444.6 256.6C437.533 246.6 431.667 237.934 431.667 237.267C431.667 236.067 438.2 220.734 439.133 219.8C439.4 219.534 449.267 217.667 461 215.667C483.133 211.8 488.2 209.8 490.333 204.2C491.133 202.334 491.667 190.2 491.667 177.267C491.667 145 493 146.6 460.733 141.134L439.533 137.667L435.8 128.334L431.933 119L439.4 108.334C443.533 102.467 449.4 94.0672 452.6 89.6672C457.133 83.5338 458.333 80.6005 458.333 76.4671C458.333 71.4005 457.4 70.2005 439.933 52.7338C416.733 29.5338 418.467 29.8005 395.533 45.8005C386.467 52.2005 378.067 58.2005 376.867 59.1338C375 60.7338 373.8 60.6005 367.533 57.8005C363.533 56.0671 359.4 54.3338 358.2 53.9338C356.467 53.4005 355.267 48.6005 353 33.4005C351.4 22.6005 349.267 11.8005 348.333 9.40047C345.267 1.9338 342.733 1.26714 317.667 0.733803C305.267 0.467136 293.667 0.467136 292.067 0.733803ZM327.667 47.8005C331.133 70.8671 332.333 73.0005 342.733 76.3338C346.467 77.5338 355.533 81.2672 362.733 84.6005C378.467 91.8005 377.533 92.0671 399 76.8671L414.467 65.9338L420.467 71.8005C423.667 75.0005 426.333 78.0671 426.333 78.7338C426.333 79.4005 421.267 87.0005 415.133 95.5338C408.867 104.2 403.4 112.867 403 114.734C402.333 117.4 403.4 121.134 407.4 129.534C410.467 135.667 413.8 144.2 415.133 148.467C417.533 156.734 421.533 161.8 426.6 162.867C428.2 163.267 437.533 165 447 166.6L464.333 169.667L464.733 177.534C465 181.8 464.6 185.8 464.067 186.467C463.533 187 454.067 189 443.133 190.867C419.933 194.734 418.467 195.667 414.333 208.734C412.733 213.534 409.4 221.534 406.867 226.467C399.667 241 399.4 240.334 421.933 271.8L426.2 277.8L419.933 284.067L413.533 290.334L396.333 278.334C384.467 269.934 378.067 266.334 375.4 266.334C373.267 266.334 367.533 268.334 362.6 270.867C357.667 273.4 349.267 276.734 344.067 278.334C338.867 279.934 333.533 282.334 332.2 283.8C330.467 285.667 328.733 292.734 326.333 306.734L322.867 327L313.933 327.4C303.667 327.8 305.133 330.467 301 305C299.267 294.734 297.267 287 295.8 285C294.2 282.867 289.4 280.2 282.2 277.534C276.067 275.267 267.133 271.534 262.467 269.267C256.467 266.334 252.733 265.267 250.467 265.934C248.6 266.334 239.533 271.8 230.6 278.067L214.067 289.267L207.667 283L201.267 276.6L211.667 262.2C217.4 254.334 222.867 246.6 223.533 245.134C226.067 240.467 225.133 235 219.8 223.534C216.867 217.4 213.933 209.667 213 206.467C211 199 208.2 194.734 204.6 193.534C203 193 193.267 191 183 189L164.333 185.667L163.933 178.334C163.8 174.334 164.2 170.2 164.733 169.267C165.4 168.2 173.533 166.2 184.467 164.467C194.6 162.867 204.333 160.734 205.933 159.934C209.533 157.934 211.267 155 213.933 145.934C215 142.067 218.333 134.334 221.133 128.734C223.933 123 226.333 116.867 226.333 115.134C226.333 113.134 221.667 105 215 95.1338C208.733 85.9338 203.667 77.9338 203.667 77.4005C203.667 76.7338 206.333 73.6671 209.533 70.4671L215.4 64.7338L232.467 76.8671C243.933 85.0005 250.6 89.0005 253 89.0005C255 89.0005 261.4 86.6005 267.133 83.8005C273 81.0005 281.133 77.6671 285.533 76.3338C297.133 73.1338 298.6 70.7338 302.2 50.7338C303.933 41.4005 305.533 32.3338 305.933 30.6005C306.6 27.9338 307.4 27.6671 315.533 27.6671H324.6L327.667 47.8005Z" fill="black"/>
<path d="M296.067 112.333C285.134 115.267 276.467 120.333 267 129.133C242.067 152.6 238.467 191.533 258.734 218.6C272.467 236.867 291.267 246.333 313.667 246.333C366.867 246.333 399.267 189.133 372.334 143.133C364.067 129 347.4 116.733 331 112.333C321.267 109.933 305.4 109.933 296.067 112.333ZM331.134 141.267C358.334 154.067 362.867 191.8 339.4 210.333C312.467 231.8 273 212.867 273 178.467C273 167.8 276.2 159.533 283.267 151.667C289.534 144.6 293.934 141.8 303 138.733C310.2 136.333 323.267 137.533 331.134 141.267Z" fill="black"/>
<path d="M140.467 357.667C134.733 358.867 125.4 361.267 119.8 363.267C91.9334 372.867 8.2001 410.067 3.66676 415C1.53343 417.267 0.600098 419.8 0.600098 423.8C0.600098 428.467 1.4001 430.2 4.86676 433.267C11.2668 439 15.1334 438.2 39.8001 426.867C69.0001 413.267 113.533 394.334 128.067 389.134C155.933 379.4 196.733 380.6 221 392.067C227.667 395.134 232.867 399.4 243.533 409.934C260.333 426.734 263.4 429.134 273.933 433.534C297.133 443.134 325.533 448.6 362.333 450.334C389.933 451.667 395.267 452.6 402.467 457.4C412.333 463.934 412.333 479.134 402.6 485.667C394.467 491 388.067 491.667 339.667 491.667C288.333 491.667 278.333 490.734 241.4 482.867C227.933 480.067 217 478.334 215 478.867C208.2 480.6 203.8 488.067 205.533 494.867C207.533 503 212.2 505.134 243.667 511.534C272.467 517.534 283.267 518.6 328.6 519.267C376.467 520.067 392.867 519 405.933 514.2C410.6 512.467 440.067 494.067 480.333 467.667C560.333 415.267 567.533 411.4 585.4 411.134C592.6 411 593.533 411.4 597.133 415.4C601.933 420.867 602.067 424.2 597.133 431.8C591.267 441.134 584.067 446.334 506.333 497C409.133 560.334 365.667 587.534 349 595.534C339.4 600.067 338.333 600.334 325 600.2C313.8 600.2 309.267 599.534 302.333 597.134C297.533 595.4 270.867 582.467 243 568.467C215.133 554.467 185.4 539.534 177 535.4C151.667 522.734 136.467 520.734 120.733 527.934C110.333 532.734 70.7334 558.067 68.3334 561.4C64.0668 567.534 66.7334 577.267 73.9334 580.867C79.9334 583.934 83.9334 582.467 104.867 569.134C135.133 549.934 136.067 549.534 146.733 552.334C150.6 553.267 182.2 568.6 217 586.2C290.467 623.267 298.467 626.467 321 627.4C345.8 628.334 355.933 624.734 393.667 601.667C424.2 583 496.333 536.467 553.533 498.734C606.067 463.934 616.2 455.8 623 442.334C630.6 427.4 628.733 409.8 618.2 397.8C606.867 385 588.333 380.734 567.667 386.067L557.667 388.734L552.067 383.667C538.467 371 515.933 365.934 496.467 371L488.733 373L483.933 369.134C464.067 353.667 435.267 351.534 409.267 363.667C404.6 365.8 382.467 379.134 360.067 393.134L319.4 418.467L312.467 417C308.733 416.067 299.933 413.534 293 411.267C280.6 407.134 280.2 406.867 269.667 395.934C251.667 377 233.933 366.2 210.467 360.067C199.667 357.267 194.067 356.6 174.333 356.2C157.667 355.934 148.067 356.334 140.467 357.667ZM458.067 385.134C460.333 385.934 462.333 387 462.333 387.667C462.333 388.2 449 397 432.733 407.134C413 419.4 401.933 425.534 399.667 425.4C397.8 425.267 389.267 424.734 380.6 424.2C367.933 423.534 365.133 423 366.6 421.667C369.267 419 410.333 393.667 417.8 390.067C423.933 387 431.8 384.467 439.667 383.134C443.933 382.467 452.467 383.4 458.067 385.134ZM526.2 399.267C529 400.334 530.333 401.534 529.533 402.334C528.867 403 507.667 417.134 482.333 433.667L436.467 463.8L434.867 458.467C434.067 455.534 431.933 450.867 430.467 448.2C428.067 444.2 427.8 443 429.267 441.667C430.2 440.867 445.667 431 463.667 419.934C503.533 395.4 510.867 393 526.2 399.267Z" fill="black"/>
</svg>
